<?xml version="1.0" encoding="UTF-8" standalone="no"?><svg xmlns="http://www.w3.org/2000/svg" xmlns:xlink="http://www.w3.org/1999/xlink" fill="#000000" height="197.3" preserveAspectRatio="xMidYMid meet" version="1" viewBox="158.4 139.6 193.1 197.3" width="193.1" zoomAndPan="magnify"><g fill="#47443d" id="change1_1"><path d="M 335.765625 315.765625 L 335.808594 315.765625 Z M 191.476562 155.707031 C 189.671875 155.707031 187.964844 156.523438 186.121094 158.140625 C 185.910156 158.339844 183.292969 160.824219 181.550781 162.476562 L 179.964844 163.984375 C 171.09375 172.277344 167.070312 187.214844 169.71875 202.046875 C 170.574219 206.84375 171.953125 211.808594 173.816406 216.8125 C 183.214844 242.058594 201.066406 264.015625 214.386719 277.988281 C 227.644531 292.058594 248.617188 311.058594 273.320312 321.792969 C 278.214844 323.921875 283.105469 325.5625 287.847656 326.675781 C 302.523438 330.113281 317.652344 326.894531 326.40625 318.480469 L 328.378906 316.609375 C 330.046875 315.027344 332.25 312.941406 332.601562 312.605469 C 338.003906 307.050781 335.273438 302.402344 324.371094 291.308594 L 321.632812 288.5 C 314.695312 281.304688 303.078125 269.257812 293.261719 270.425781 C 290.609375 270.738281 287.824219 272.679688 284.875 274.742188 C 281.933594 276.796875 278.890625 278.921875 275.226562 280.078125 C 265.414062 283.1875 255.457031 281.148438 247.1875 274.332031 C 242.261719 270.269531 237.242188 265.519531 232.679688 260.589844 C 228.082031 255.855469 223.605469 250.59375 219.808594 245.449219 C 213.445312 236.828125 211.941406 226.773438 215.570312 217.140625 C 216.925781 213.546875 219.210938 210.621094 221.421875 207.789062 C 223.632812 204.953125 225.722656 202.277344 226.179688 199.648438 C 227.863281 189.898438 216.460938 177.660156 209.644531 170.351562 L 206.980469 167.460938 C 199.777344 159.578125 195.398438 155.707031 191.476562 155.707031 Z M 299.675781 336.964844 C 294.757812 336.964844 290.027344 336.367188 285.808594 335.382812 C 280.542969 334.148438 275.144531 332.332031 269.757812 329.992188 C 243.664062 318.652344 221.714844 298.800781 207.898438 284.140625 C 194.015625 269.578125 175.363281 246.601562 165.4375 219.933594 C 163.386719 214.429688 161.863281 208.9375 160.917969 203.613281 C 158.394531 189.503906 160.472656 169.960938 173.859375 157.449219 L 175.394531 155.992188 C 177.261719 154.222656 180.101562 151.527344 180.21875 151.429688 C 193.648438 139.632812 205.644531 152.746094 213.585938 161.429688 L 216.1875 164.257812 C 224.132812 172.78125 237.429688 187.046875 234.988281 201.171875 C 234.152344 206.011719 231.132812 209.878906 228.46875 213.292969 C 226.589844 215.699219 224.8125 217.972656 223.941406 220.289062 C 221.378906 227.089844 222.4375 233.953125 227.003906 240.140625 C 230.566406 244.964844 234.773438 249.910156 239.171875 254.441406 C 243.535156 259.15625 248.25 263.621094 252.875 267.433594 C 258.808594 272.320312 265.597656 273.746094 272.527344 271.558594 C 274.890625 270.808594 277.257812 269.15625 279.761719 267.40625 C 283.308594 264.929688 287.332031 262.121094 292.210938 261.542969 C 306.433594 259.828125 319.984375 273.902344 328.070312 282.296875 L 330.746094 285.039062 C 338.996094 293.429688 351.453125 306.109375 338.960938 318.894531 L 338.960938 318.890625 C 338.777344 319.070312 336.351562 321.378906 334.523438 323.105469 L 332.605469 324.921875 C 323.386719 333.785156 311.039062 336.964844 299.675781 336.964844" fill="inherit"/><path d="M 307.257812 243.855469 C 304.910156 243.855469 302.941406 242.023438 302.800781 239.648438 C 302.085938 227.613281 297.132812 216.167969 288.851562 207.429688 C 280.5625 198.6875 269.398438 193.125 257.417969 191.769531 C 254.964844 191.492188 253.199219 189.277344 253.480469 186.824219 C 253.757812 184.371094 255.980469 182.609375 258.421875 182.886719 C 272.492188 184.480469 285.605469 191.011719 295.335938 201.277344 C 305.070312 211.542969 310.890625 224.984375 311.726562 239.121094 C 311.871094 241.585938 309.992188 243.703125 307.527344 243.847656 C 307.4375 243.855469 307.347656 243.855469 307.257812 243.855469" fill="inherit"/><path d="M 340.703125 248.914062 C 338.355469 248.914062 336.386719 247.082031 336.246094 244.707031 C 334.953125 222.933594 325.992188 202.234375 311.007812 186.425781 C 296.023438 170.613281 275.832031 160.554688 254.15625 158.105469 C 251.703125 157.828125 249.9375 155.613281 250.21875 153.160156 C 250.492188 150.707031 252.710938 148.933594 255.160156 149.21875 C 278.929688 151.90625 301.066406 162.933594 317.496094 180.273438 C 333.929688 197.609375 343.757812 220.304688 345.171875 244.179688 C 345.316406 246.644531 343.4375 248.761719 340.972656 248.90625 C 340.882812 248.910156 340.792969 248.914062 340.703125 248.914062" fill="inherit"/></g></svg>